<?xml version="1.0" encoding="utf-8"?>
<!-- Generator: Adobe Illustrator 21.0.0, SVG Export Plug-In . SVG Version: 6.00 Build 0)  -->
<svg version="1.1" id="Vrstva_1" xmlns="http://www.w3.org/2000/svg" xmlns:xlink="http://www.w3.org/1999/xlink" x="0px" y="0px"
	 viewBox="0 0 141.7 141.7" style="enable-background:new 0 0 141.7 141.7;" xml:space="preserve">
<style type="text/css">
	.st0{fill:#282525;}
</style>
<g>
	<g>
		<g>
			<path class="st0" d="M69.1,23c-6.4,6.4-12.8,12.8-19.3,19.3c-3.2,3.2-6.6,6.4-9.7,9.7c-1.4,1.5-1.9,2.4-1.7,4.5
				C39.4,66.7,41,77,42.3,87.2c0.6,4.8,1.2,9.6,1.8,14.4c0.3,2.3,0.2,4,1.9,5.7c3.6,3.6,8.3,6.6,12.3,9.8c2.9,2.3,4.4,2.4,8.2,2.4
				c2.7,0,5.4,0,8.1,0c1.6,0,3.9,0.4,5.4-0.1c3.6-1.2,7.3-5.6,10.2-7.9c2.4-1.9,6-3.7,6.8-6.8c0.7-2.9,0.8-6.2,1.2-9.2
				c1.5-11.4,2.9-22.9,4.4-34.3c0.3-2.5,1.5-5.9,0.1-8.2c-1.9-2.9-5.5-5.5-7.9-7.9C87.4,37.8,80,30.4,72.6,23
				c-2.3-2.3-5.8,1.3-3.5,3.5c5.7,5.7,11.5,11.5,17.2,17.2c3.5,3.5,7.1,7.1,10.6,10.6c0.3,0.3,1.7,2.2,2.2,2.2c-1,0,0.1-2.6-0.7-0.2
				c-1.1,3.4-1,7.8-1.4,11.3c-0.7,5.6-1.4,11.2-2.1,16.8c-0.6,5-1.3,9.9-1.9,14.9c-0.2,1.4-0.5,2.9-0.6,4.3c0,0.2-0.2,0.9-0.1,1.1
				c0.2,0.4,0.7-1.1,0.4-1.2c-0.7-0.1-3.7,3-4.3,3.4c-2.2,1.8-4.4,3.5-6.6,5.3c-0.8,0.6-3.5,2.1-3.8,3c0.7-2,2.5,0,0.5-0.6
				c-0.9-0.3-2.3,0-3.2,0c-2.7,0-5.4,0-8.1,0c-1,0-2.1-0.1-3.1,0c-2.5,0.2-0.6-0.5,0.1,0.7c-0.6-1-2.7-2.1-3.6-2.8
				c-2.3-1.8-4.6-3.7-6.9-5.5c-0.8-0.7-3.1-3.2-4.2-3.3c-1.1-0.1,0.7,0.5,0.3,1.3c0.1-0.2-0.1-0.8-0.1-1c-0.1-3.8-1-7.7-1.5-11.5
				c-1.3-10.5-2.7-21.1-4-31.6c-0.2-1.2,0-3.7-0.6-4.8c-0.1-0.1,0-0.8-0.1-0.8c3.4,1.3-2.1,2-0.3,1.3c1.1-0.4,2.7-2.7,3.5-3.5
				c1.9-1.9,3.7-3.7,5.6-5.6c6.9-6.9,13.7-13.7,20.6-20.6C74.9,24.2,71.4,20.7,69.1,23z"/>
		</g>
	</g>
	<g>
		<g>
			<path class="st0" d="M39.5,57c5.7,2.5,11.4,5.1,17.1,7.6c4.6,2.1,9.3,1.4,14.3,1.4c4.8,0,9.6,0.7,14-1.3
				c5.8-2.6,11.6-5.2,17.4-7.7c2.9-1.3,0.4-5.6-2.5-4.3c-5.5,2.4-11,4.9-16.4,7.3c-0.9,0.4-1.9,0.9-2.8,1.3c0.7-0.2,1.4-0.1-0.1-0.2
				c-3.1-0.4-6.5,0-9.6,0c-3.1,0-6.3-0.3-9.4,0c-1.5,0.2-1,0-0.3,0.2c-1-0.3-1.9-0.8-2.8-1.3c-5.5-2.4-11-4.9-16.4-7.3
				C39.1,51.4,36.5,55.7,39.5,57L39.5,57z"/>
		</g>
	</g>
	<g>
		<g>
			<path class="st0" d="M82,116.1c0.5-13.6,1.1-27.3,1.6-40.9c0.2-4,0.9-8.5,0.3-12.5c-1-6.3-3.5-12.6-5.2-18.7
				c-1.8-6.6-3.6-13.3-5.5-19.9c-0.7-2.4-4.2-2.4-4.8,0C65,36.6,61,49.2,58.1,61.8c-0.8,3.4-0.2,7,0,10.5c0.3,8.6,0.7,17.2,1,25.8
				c0.2,6,0.5,11.9,0.7,17.9c0.1,3.2,5.1,3.2,5,0c-0.5-13.4-1-26.7-1.6-40.1c-0.1-3.1-0.2-6.3-0.4-9.4c0-0.8-0.1-1.6-0.1-2.4
				c0-1.2-0.1,0.4,0-0.2c1.1-6.3,3.4-12.5,5.1-18.7c1.8-6.6,3.6-13.3,5.5-19.9c-1.6,0-3.2,0-4.8,0c3.4,12.4,6.4,25.1,10.3,37.4
				c0.6,2,0.4,0.2,0.2,2.1c-0.2,2.6-0.2,5.2-0.3,7.8c-0.3,8.5-0.7,17-1,25.4c-0.2,6-0.5,11.9-0.7,17.9
				C76.9,119.3,81.9,119.3,82,116.1L82,116.1z"/>
		</g>
	</g>
</g>
</svg>
