<?xml version="1.0" encoding="utf-8"?>
<!-- Generator: Adobe Illustrator 21.0.0, SVG Export Plug-In . SVG Version: 6.00 Build 0)  -->
<svg version="1.1" id="Vrstva_1" xmlns="http://www.w3.org/2000/svg" xmlns:xlink="http://www.w3.org/1999/xlink" x="0px" y="0px"
	 viewBox="0 0 141.7 141.7" style="enable-background:new 0 0 141.7 141.7;" xml:space="preserve">
<style type="text/css">
	.st0{fill:#2AA7E0;}
	.st1{fill:#000100;}
</style>
<g>
	<g>
		<path class="st0" d="M70.9,116.5c29.6,0,34-31.5,27.6-45.3c-6.9-14.7-23-33.2-27.6-45.9C66.3,38,50.2,56.5,43.3,71.2
			C36.8,85,41.3,116.5,70.9,116.5z"/>
	</g>
	<g>
		<g>
			<g>
				<path class="st1" d="M70.9,119c19.7-0.3,32.7-15.3,32.6-34.7c0-23.2-22.4-39.2-30.2-59.7c-0.9-2.4-3.9-2.4-4.8,0
					c-7.8,20.6-30.2,36.5-30.2,59.7C38.2,103.6,51.2,118.6,70.9,119c3.2,0.1,3.2-4.9,0-5c-9.6-0.2-18.2-3.9-23.2-12.4
					c-3.8-6.4-5.1-14.4-4.2-21.8c1.2-9.4,7.5-17.5,12.6-25.2c6.2-9.2,13.2-18.3,17.2-28.7c-1.6,0-3.2,0-4.8,0
					c4,10.4,11,19.5,17.2,28.7c5.1,7.6,11.4,15.8,12.6,25.2c1,7.4-0.4,15.4-4.2,21.8c-5,8.5-13.7,12.2-23.2,12.4
					C67.7,114,67.6,119,70.9,119z"/>
			</g>
		</g>
		<g>
			<g>
				<path class="st1" d="M48.6,76.3c-2.8,9.3-1,20,5.8,27.1c2.2,2.3,5.8-1.2,3.5-3.5c-5.6-5.8-6.8-14.6-4.6-22.2
					C54.4,74.6,49.6,73.2,48.6,76.3L48.6,76.3z"/>
			</g>
		</g>
	</g>
</g>
</svg>
