<?xml version="1.0" encoding="utf-8"?>
<!-- Generator: Adobe Illustrator 21.0.0, SVG Export Plug-In . SVG Version: 6.00 Build 0)  -->
<svg version="1.1" id="Vrstva_1" xmlns="http://www.w3.org/2000/svg" xmlns:xlink="http://www.w3.org/1999/xlink" x="0px" y="0px"
	 viewBox="0 0 141.7 141.7" style="enable-background:new 0 0 141.7 141.7;" xml:space="preserve">
<style type="text/css">
	.st0{fill:#000100;}
</style>
<g>
	<g>
		<g>
			<path class="st0" d="M54,75.5c-8.8,0-20.9-1.9-25.3,8c-4.6,10.5,4.9,18.3,14.7,18.3c15.1,0.1,30.3,0,45.4,0
				c9.5,0,23.4,1.2,25.2-11.3c0.7-4.9-1.5-9.9-5.7-12.6c-5.1-3.3-11.6-2.5-17.4-2.5c-3.2,0-3.2,5,0,5c6.4,0,18.7-1.2,18.2,8.6
				c-0.5,10-14.3,7.8-20.9,7.8c-11.6,0-23.2,0-34.9,0c-6.8,0-21.8,2-20.7-9c1-9.7,14.6-7.3,21.3-7.3C57.2,80.5,57.2,75.5,54,75.5
				L54,75.5z"/>
		</g>
	</g>
	<g>
		<g>
			<path class="st0" d="M60.8,62.6c-5.3,0-11.5-1-16.2,1.9c-4.7,2.9-6.3,8.3-6.5,13.5c-0.1,3.2,4.9,3.2,5,0c0.1-4.2,1.4-8.7,5.8-10
				c3.6-1.1,8.1-0.4,11.8-0.4C64.1,67.6,64.1,62.6,60.8,62.6L60.8,62.6z"/>
		</g>
	</g>
	<g>
		<g>
			<path class="st0" d="M54.2,65.1c0.4-2.9,3-7.1,6.3-8.9c3.3-1.8,7.2-1.2,10.6-2.7c4.8-2,6.5-7,5.2-11.9c-1.2,0.9-2.4,1.9-3.7,2.8
				c2.8,1.2,5.6,2.8,7.9,4.8c5.5,4.7,5.1,9.6-0.3,14.3c-1.6,1.4-0.3,4.3,1.8,4.3c7.8-0.1,16.1,0.1,16.4,10.1c0.1,3.2,5.1,3.2,5,0
				c-0.4-12.9-10.7-15.2-21.4-15.1c0.6,1.4,1.2,2.8,1.8,4.3c5.7-5,8.2-11.9,3.2-18.4c-3-3.8-7.4-6.7-11.9-8.6
				c-1.9-0.8-4.3,0.5-3.7,2.8c2.1,7.7-8.3,6.3-12.9,8.6c-5.3,2.6-8.6,7.7-9.4,13.5C48.8,68.3,53.8,68.3,54.2,65.1L54.2,65.1z"/>
		</g>
	</g>
</g>
</svg>
