<?xml version="1.0" ?><svg id="Layer_1" style="enable-background:new 0 0 74 74;" version="1.1" viewBox="0 0 74 74" xml:space="preserve" xmlns="http://www.w3.org/2000/svg" xmlns:xlink="http://www.w3.org/1999/xlink"><style type="text/css">
	.st0{fill:#2B3033;}
</style><g><path class="st0" d="M61.1,22.3c-1.3-11-10.3-19.9-21.3-21.1c-6.9-0.8-13.8,1.4-18.9,6c-5.1,4.6-8.1,11.2-8.1,18.1   c0,6.3,2.4,12.2,6.7,16.8c3.2,3.4,5.3,7.7,5.9,12.6V61c0,2.9,2,5.3,4.7,5.9c0.3,3.5,3.3,6.2,6.8,6.2c3.5,0,6.5-2.7,6.8-6.2   c2.7-0.6,4.7-3,4.7-5.9v-6.4c0.7-4.7,2.8-9.2,6.3-12.9C59.6,36.4,61.9,29.4,61.1,22.3z M37,69c-1.3,0-2.4-0.9-2.7-2h5.4   C39.4,68.1,38.3,69,37,69z M51.9,38.9C51.9,38.9,51.9,38.9,51.9,38.9c-4,4.4-6.6,9.6-7.3,15.2c0,0.1,0,0.2,0,0.3V61   c0,1.1-0.9,2-2,2H31.4c-1.1,0-2-0.9-2-2v-4.5h10.7c1.1,0,2-0.9,2-2s-0.9-2-2-2H29.1c-1-5.1-3.3-9.6-6.7-13.2   c-3.6-3.8-5.6-8.8-5.6-14c0-5.7,2.5-11.2,6.7-15.1C27.3,6.8,32,5,37,5c0.8,0,1.5,0,2.3,0.1c9.2,1,16.7,8.4,17.8,17.6   C57.8,28.7,55.9,34.6,51.9,38.9z"/><path class="st0" d="M42.3,9.1c-1.1-0.3-2.2,0.2-2.5,1.3c-0.3,1,0.2,2.2,1.3,2.5c4.7,1.6,8.1,5.7,8.8,10.5c0.1,1,1,1.7,2,1.7   c0.1,0,0.2,0,0.3,0c1.1-0.1,1.9-1.2,1.7-2.2C52.9,16.6,48.5,11.2,42.3,9.1z"/></g></svg>