<?xml version="1.0" ?><!DOCTYPE svg  PUBLIC '-//W3C//DTD SVG 1.1//EN'  'http://www.w3.org/Graphics/SVG/1.1/DTD/svg11.dtd'><svg enable-background="new 0 0 512 512" height="512px" id="Calque_1" version="1.1" viewBox="0 0 512 512" width="512px" xml:space="preserve" xmlns="http://www.w3.org/2000/svg" xmlns:xlink="http://www.w3.org/1999/xlink"><g><path d="M470.21,256c0,1.9-0.021,3.79-0.08,5.67c-1.42,55.101-23.54,106.69-62.66,145.801   c-40.45,40.46-94.25,62.74-151.47,62.74c-57.221,0-111.021-22.28-151.471-62.74C65.41,368.361,43.29,316.77,41.87,261.67   c-0.061-1.88-0.08-3.77-0.08-5.67c0-57.22,22.279-111.01,62.739-151.47C144.98,64.07,198.78,41.79,256,41.79   c57.22,0,111.02,22.28,151.47,62.74C447.93,144.99,470.21,198.78,470.21,256z" fill="#F3B81A"/></g><g><g><g><path d="M407.47,104.53C367.02,64.07,313.22,41.79,256,41.79c-57.221,0-111.021,22.28-151.471,62.74     C64.07,144.99,41.79,198.78,41.79,256c0,1.9,0.02,3.79,0.08,5.67c1.42,55.101,23.54,106.69,62.659,145.801     c40.45,40.46,94.25,62.74,151.471,62.74c57.22,0,111.02-22.28,151.47-62.74c39.12-39.109,61.24-90.7,62.66-145.801     c0.061-1.88,0.08-3.77,0.08-5.67C470.21,198.78,447.93,144.99,407.47,104.53z M256,460.211     c-94.601,0-174.38-64.661-197.471-152.11C54.13,291.47,51.79,274,51.79,256C51.79,143.4,143.4,51.79,256,51.79     c112.6,0,204.21,91.61,204.21,204.21c0,18-2.341,35.471-6.74,52.101C430.38,395.55,350.6,460.211,256,460.211z" fill="#5E2B16"/></g></g><g><g><path d="M256,384.651c-40.753,0-78.529-19.065-98.586-49.755l8.371-5.472     c18.229,27.896,52.799,45.227,90.215,45.227s71.983-17.329,90.215-45.227l8.371,5.472     C334.529,365.586,296.754,384.651,256,384.651z" fill="#5E2B16"/></g></g></g><g><path d="M190.55,243.333c-17.445,0-31.638-14.193-31.638-31.639h10c0,11.932,9.707,21.639,21.638,21.639   s21.638-9.707,21.638-21.639h10C222.188,229.14,207.995,243.333,190.55,243.333z" fill="#5E2C17"/></g><g><path d="M321.449,243.333c-17.445,0-31.639-14.193-31.639-31.639h10c0,11.932,9.707,21.639,21.639,21.639   c11.931,0,21.638-9.707,21.638-21.639h10C353.087,229.14,338.895,243.333,321.449,243.333z" fill="#5E2C17"/></g></svg>