<?xml version="1.0" ?><!DOCTYPE svg  PUBLIC '-//W3C//DTD SVG 1.1//EN'  'http://www.w3.org/Graphics/SVG/1.1/DTD/svg11.dtd'><svg enable-background="new 0 0 512 512" height="512px" id="Calque_1" version="1.1" viewBox="0 0 512 512" width="512px" xml:space="preserve" xmlns="http://www.w3.org/2000/svg" xmlns:xlink="http://www.w3.org/1999/xlink"><g><path d="M470.209,256c0,1.9-0.021,3.79-0.079,5.67c-1.421,55.103-23.54,106.69-62.66,145.803   c-40.45,40.46-94.25,62.74-151.47,62.74c-57.223,0-111.021-22.28-151.473-62.74C65.41,368.361,43.29,316.77,41.87,261.67   c-0.063-1.88-0.08-3.77-0.08-5.67c0-57.22,22.277-111.01,62.737-151.47C144.98,64.07,198.78,41.79,256,41.79   c57.22,0,111.02,22.28,151.47,62.74C447.93,144.99,470.209,198.78,470.209,256z" fill="#F3B81A"/><g><g><path d="M407.47,104.53C367.02,64.07,313.22,41.79,256,41.79c-57.223,0-111.021,22.28-151.473,62.74     C64.07,144.99,41.79,198.78,41.79,256c0,1.9,0.02,3.79,0.08,5.67c1.42,55.103,23.54,106.69,62.657,145.803     c40.45,40.46,94.25,62.74,151.473,62.74c57.22,0,111.02-22.28,151.47-62.74c39.12-39.109,61.239-90.7,62.66-145.803     c0.061-1.88,0.079-3.77,0.079-5.67C470.209,198.78,447.93,144.99,407.47,104.53z M256,460.213     c-94.603,0-174.38-64.662-197.473-152.11C54.13,291.47,51.79,274,51.79,256C51.79,143.4,143.4,51.79,256,51.79     c112.6,0,204.209,91.61,204.209,204.21c0,18-2.342,35.473-6.739,52.103C430.38,395.551,350.6,460.213,256,460.213z" fill="#5E2B16"/></g><g><g><path d="M190.551,179.79c-17.59,0-31.9,14.32-31.9,31.91s14.313,31.9,31.9,31.9s31.9-14.313,31.9-31.9      S208.141,179.79,190.551,179.79z M190.551,233.6c-12.08,0-21.9-9.83-21.9-21.9c0-12.08,9.82-21.91,21.9-21.91      s21.9,9.83,21.9,21.91C212.451,223.77,202.631,233.6,190.551,233.6z" fill="#5E2B16"/></g><g><path d="M321.448,179.79c-17.59,0-31.897,14.32-31.897,31.91s14.311,31.9,31.897,31.9s31.899-14.313,31.899-31.9      C353.351,194.11,339.039,179.79,321.448,179.79z M321.448,233.6c-12.067,0-21.897-9.83-21.897-21.9      c0-12.08,9.83-21.91,21.897-21.91c12.08,0,21.899,9.83,21.899,21.91C343.351,223.77,333.531,233.6,321.448,233.6z" fill="#5E2B16"/></g></g></g><g><g><rect fill="#5E2B16" height="10" transform="matrix(0.7071 0.7071 -0.7071 0.7071 172.2716 -94.3275)" width="53.738" x="173.132" y="155.79"/></g><g><rect fill="#5E2B16" height="53.746" transform="matrix(0.7071 0.7072 -0.7072 0.7071 205.1016 -173.5301)" width="10" x="307" y="133.917"/></g></g><g><path d="M256,420.886c-34.125,0-61.888-29.471-61.888-65.693S221.876,289.5,256,289.5s61.887,29.471,61.887,65.693    S290.124,420.886,256,420.886z M256,299.5c-28.61,0-51.888,24.984-51.888,55.693S227.39,410.886,256,410.886    c28.609,0,51.887-24.984,51.887-55.693S284.611,299.5,256,299.5z" fill="#5E2B16"/></g></g></svg>